<?xml version="1.0" standalone="no"?>
<!DOCTYPE svg PUBLIC "-//W3C//DTD SVG 20010904//EN"
 "http://www.w3.org/TR/2001/REC-SVG-20010904/DTD/svg10.dtd">
<svg version="1.0" xmlns="http://www.w3.org/2000/svg"
 width="1075.000000pt" height="546.000000pt" viewBox="0 0 1075.000000 546.000000"
 preserveAspectRatio="xMidYMid meet">
<metadata>
Created by potrace 1.16, written by Peter Selinger 2001-2019
</metadata>
<g transform="translate(0.000000,546.000000) scale(0.100000,-0.100000)"
fill="#000000" stroke="none">
<path d="M0 2730 l0 -2730 5375 0 5375 0 0 2730 0 2730 -5375 0 -5375 0 0
-2730z m10170 404 l0 -1907 -137 6 c-76 4 -284 9 -463 12 -179 3 -349 8 -377
11 l-53 5 -1 37 c-3 54 -17 -66 -18 -150 -1 -67 -1 -68 -28 -69 -28 -2 -28 -2
-3 -6 14 -3 31 -10 38 -15 7 -6 15 -8 19 -4 3 3 1 6 -5 6 -8 0 -11 26 -10 88
l2 87 6 -85 6 -85 3 65 c2 36 3 68 3 71 -1 3 88 5 196 5 108 -1 330 2 492 5
162 3 243 3 180 -1 l-115 -6 133 -2 132 -2 0 -289 0 -289 -1885 2 -1884 1 -1
2208 0 2207 1885 0 1885 0 0 -1906z m-9435 221 l0 -310 -87 -3 -88 -3 0 309
c0 170 3 312 7 316 4 4 43 5 88 4 l80 -3 0 -310z m2280 0 l0 -310 -77 -3 c-72
-3 -78 -1 -78 17 0 20 -1 19 -36 -4 -43 -29 -118 -34 -162 -11 -70 37 -102
103 -102 214 0 99 31 169 93 210 53 35 128 37 175 3 l32 -22 0 104 c0 57 3
107 7 111 4 4 39 5 78 4 l70 -3 0 -310z m1193 303 c14 -14 16 -96 3 -116 -5
-9 -29 -12 -82 -10 l-74 3 -3 54 c-2 29 -1 60 2 67 7 18 137 19 154 2z m-2670
-95 l3 -73 49 0 50 0 0 -55 0 -55 -55 0 -55 0 0 -104 c0 -116 3 -123 65 -128
40 -3 40 -4 43 -47 2 -28 -1 -47 -10 -52 -7 -5 -49 -9 -93 -9 -90 0 -138 20
-155 66 -6 14 -10 81 -10 150 l0 124 -35 0 -35 0 0 54 0 55 38 3 c33 3 37 6
40 33 1 17 5 49 8 73 l5 43 72 -3 72 -3 3 -72z m3742 -108 l0 -55 -35 0 c-35
0 -35 0 -35 -44 0 -84 -71 -133 -208 -143 -71 -6 -97 -18 -72 -33 6 -4 56 -10
110 -13 102 -5 171 -27 200 -62 9 -10 15 -38 15 -66 0 -39 -5 -53 -29 -78 -49
-51 -104 -66 -241 -66 -101 1 -128 4 -167 22 -80 36 -91 106 -22 141 l35 18
-26 24 c-41 39 -30 79 32 117 l32 19 -28 17 c-16 9 -36 33 -45 52 -31 65 -1
129 79 166 55 26 197 26 246 1 35 -18 35 -18 73 10 22 15 50 28 62 28 22 0 24
-4 24 -55z m-4085 21 c53 -35 59 -57 63 -227 3 -87 1 -170 -2 -184 -6 -25 -8
-26 -84 -23 l-77 3 -5 165 -5 165 -36 3 c-61 5 -68 -12 -71 -183 l-3 -150 -80
0 -80 0 -3 200 c-1 110 0 210 3 223 5 20 11 22 80 22 l75 0 0 -31 0 -30 34 26
c62 47 138 55 191 21z m823 -54 l3 -74 -53 7 c-45 6 -57 4 -80 -15 -27 -21
-27 -22 -30 -158 l-3 -137 -77 -3 -78 -3 0 226 0 225 75 0 75 0 0 -37 0 -37
28 26 c38 37 82 59 112 56 24 -3 25 -6 28 -76z m382 48 c115 -59 156 -221 84
-337 -86 -139 -312 -138 -398 1 -69 112 -31 276 78 333 71 37 166 39 236 3z
m1465 19 c54 -15 101 -52 125 -98 25 -50 13 -61 -62 -61 -54 0 -58 2 -73 30
-13 25 -22 30 -50 30 -51 0 -70 -34 -70 -126 0 -90 22 -127 77 -132 31 -3 40
2 66 34 29 35 32 36 76 30 25 -4 48 -12 52 -17 3 -5 -6 -29 -19 -52 -77 -132
-298 -129 -380 5 -70 113 -32 278 77 335 61 32 119 39 181 22z m797 -10 c10
-6 28 -25 38 -42 18 -29 20 -51 20 -214 l0 -183 -74 0 -75 0 -3 160 c-3 169
-7 183 -53 183 -51 0 -65 -27 -65 -122 0 -47 -3 -117 -7 -154 l-6 -68 -76 3
-76 3 -3 200 c-1 110 0 210 3 223 5 20 11 22 80 22 l75 0 0 -32 c0 -29 1 -30
18 -15 9 9 38 25 62 37 46 21 101 21 142 -1z m-1422 -136 c0 -82 3 -158 6
-171 8 -30 44 -37 83 -18 l30 16 3 158 3 157 75 0 75 0 3 -222 2 -223 -80 0
c-80 0 -80 0 -80 27 0 24 -1 25 -17 11 -77 -67 -190 -63 -239 9 -16 24 -19 51
-22 191 -5 222 -9 212 83 212 l75 0 0 -147z m970 -78 l0 -226 -77 3 -78 3 -3
210 c-1 115 0 215 2 222 4 9 29 13 81 13 l75 0 0 -225z m-523 -621 c29 -14 66
-41 81 -60 32 -38 58 -112 45 -124 -4 -5 -41 -10 -82 -12 l-74 -3 -10 30 c-16
49 -46 75 -87 75 -78 0 -113 -60 -113 -195 0 -44 6 -97 12 -118 33 -98 155
-104 212 -10 12 21 23 39 24 40 4 7 121 -21 127 -30 20 -32 -63 -141 -137
-179 -57 -30 -167 -36 -236 -13 -118 39 -189 155 -189 308 0 100 11 141 53
203 77 115 238 153 374 88z m-2949 -96 l3 -118 89 0 89 0 3 118 3 117 85 0 85
0 3 -313 2 -313 -87 3 -88 3 -3 123 -3 122 -89 0 -89 0 -3 -122 -3 -123 -87
-3 -88 -3 0 309 c0 170 3 312 7 316 4 4 43 5 88 4 l80 -3 3 -117z m1570 110
c14 -14 17 -584 3 -606 -5 -9 -29 -12 -82 -10 l-74 3 0 295 c0 162 3 303 7
313 6 14 20 17 71 17 36 0 68 -5 75 -12z m610 -104 l3 -111 57 30 c47 23 65
28 101 23 107 -14 122 -50 119 -279 l-3 -172 -77 -3 -78 -3 0 159 c0 109 -4
162 -12 170 -19 19 -66 14 -88 -8 -18 -18 -20 -33 -20 -170 l0 -150 -80 0 -80
0 0 308 c0 170 3 312 7 316 4 4 39 5 78 4 l70 -3 3 -111z m1760 104 c13 -13
16 -56 6 -82 -4 -10 -18 -16 -38 -16 -38 0 -56 -15 -56 -46 0 -20 6 -23 43
-26 l42 -3 3 -52 3 -53 -40 0 -41 0 -2 -167 -3 -168 -77 -3 -78 -3 0 171 0
170 -41 0 -40 0 3 53 3 52 38 3 37 3 0 54 c0 46 4 58 30 84 17 16 40 32 53 34
49 10 144 6 155 -5z m347 -43 l0 -50 -40 -5 c-36 -5 -40 -8 -43 -37 -3 -31 -2
-32 40 -35 l43 -3 0 -50 0 -50 -42 -3 -43 -3 0 -170 0 -170 -77 3 -78 3 -3
168 -2 167 -35 0 -35 0 0 55 0 55 34 0 c33 0 34 0 38 55 8 93 55 125 178 122
l65 -2 0 -50z m-2427 -52 l3 -72 52 -3 52 -3 0 -50 0 -50 -53 -3 -53 -3 3
-112 3 -112 50 -5 c50 -5 50 -5 53 -43 5 -59 -8 -67 -105 -67 -151 0 -173 28
-173 219 l0 120 -32 3 c-32 3 -33 4 -33 53 l0 50 36 3 37 3 7 67 c4 37 9 71
12 75 3 4 35 7 71 5 l67 -3 3 -72z m-1086 -95 c23 -13 55 -41 70 -63 28 -39
55 -145 43 -165 -4 -6 -66 -10 -151 -10 -141 0 -144 0 -144 -22 0 -66 100 -92
160 -42 31 26 31 26 75 9 25 -9 47 -21 50 -26 10 -16 -78 -94 -121 -107 -102
-30 -210 -6 -273 63 -58 63 -73 129 -49 223 15 60 95 144 153 160 57 16 138 7
187 -20z m505 5 c65 -34 73 -64 73 -260 l0 -173 -71 0 c-62 0 -71 2 -76 20 -7
25 -7 25 -44 -2 -43 -32 -142 -37 -187 -8 -68 42 -77 130 -21 194 36 42 93 65
175 73 61 6 64 7 64 32 0 56 -62 70 -107 25 -23 -23 -31 -25 -75 -20 -86 12
-94 22 -57 70 23 29 67 55 114 67 49 13 172 3 212 -18z m2018 -5 c3 -13 6 -88
8 -167 2 -166 8 -178 71 -148 l35 16 3 158 3 158 78 3 77 3 0 -226 0 -226 -77
3 c-72 3 -78 5 -83 27 -5 22 -6 23 -20 6 -36 -43 -135 -59 -190 -30 -55 29
-65 62 -68 248 -3 121 0 172 8 182 9 11 33 15 81 15 63 0 69 -2 74 -22z m-405
-1098 l0 -90 -50 0 c-38 0 -52 4 -60 19 -27 52 0 111 52 111 23 0 28 4 28 25
0 16 6 25 15 25 12 0 15 -17 15 -90z m-2372 28 c15 -15 16 -72 2 -99 -8 -13
-21 -19 -45 -19 -28 0 -35 -4 -35 -20 0 -11 -7 -20 -15 -20 -12 0 -15 16 -15
85 l0 85 48 0 c26 0 53 -5 60 -12z m2840 -12 c-6 -11 -14 -28 -18 -36 -4 -8
-22 -20 -41 -27 l-34 -12 42 0 c33 -1 43 -5 48 -21 10 -32 -12 -50 -60 -50
-49 0 -75 21 -59 48 6 9 9 35 8 57 -4 54 8 65 71 64 51 -2 53 -3 43 -23z
m-2968 -131 c0 -13 -41 -15 -310 -15 -269 0 -310 2 -310 15 0 13 41 15 310 15
269 0 310 -2 310 -15z m2170 0 c0 -13 -100 -15 -840 -15 -740 0 -840 2 -840
15 0 13 100 15 840 15 740 0 840 -2 840 -15z m650 0 c0 -13 -37 -15 -275 -15
-238 0 -275 2 -275 15 0 13 37 15 275 15 238 0 275 -2 275 -15z"/>
<path d="M7190 4481 l25 -7 -2 -284 -1 -285 9 274 c5 151 11 277 14 280 3 3
63 -13 133 -36 70 -23 222 -71 337 -108 116 -37 385 -123 598 -192 214 -69
390 -123 393 -121 2 3 -35 17 -83 33 -49 15 -241 76 -428 137 -187 60 -432
139 -545 175 -113 36 -257 83 -321 104 -65 22 -125 39 -135 38 -14 -1 -12 -3
6 -8z"/>
<path d="M9623 4387 c-18 -6 -33 -15 -33 -19 0 -4 -6 -5 -14 -2 -7 3 -16 -2
-20 -11 -3 -9 -14 -15 -23 -13 -19 3 -19 2 -7 -72 4 -26 3 -31 -5 -20 -14 19
-14 9 0 -27 10 -26 38 -263 39 -327 0 -26 -2 -28 -32 -23 -47 7 -383 -111
-387 -136 0 -4 -8 -21 -17 -38 -44 -85 1 -219 88 -265 49 -25 95 -17 247 47
197 82 228 113 218 220 -5 61 -25 101 -66 136 -35 31 -14 30 80 -3 41 -14 85
-23 99 -20 14 2 79 30 145 62 l120 57 -105 38 c-58 21 -110 39 -116 39 -6 0
-37 -13 -70 -29 -32 -16 -60 -28 -61 -27 -2 1 6 20 18 42 16 31 19 49 14 93
-9 69 -14 83 -31 77 -8 -3 -21 -9 -29 -12 -10 -4 -15 0 -15 15 0 32 -37 121
-60 146 -19 20 -19 23 -5 35 30 25 67 1 92 -60 12 -30 24 -64 27 -75 3 -10 8
-17 11 -13 11 11 -37 123 -64 149 -25 23 -26 27 -12 37 19 13 16 13 -26 -1z
m-40 -133 c10 -32 22 -81 26 -109 l9 -50 1 51 c0 28 -6 72 -13 99 -8 26 -11
44 -7 39 10 -11 46 -111 61 -172 10 -41 13 -43 39 -37 l28 6 -7 -45 c-7 -44
-19 -69 -49 -93 -20 -17 -36 -16 -22 1 6 8 14 38 16 67 l4 54 -10 -52 c-7 -37
-20 -61 -42 -83 l-32 -31 -8 56 c-7 48 -5 59 12 84 12 16 21 35 21 43 -1 7 -8
1 -16 -14 -29 -55 -31 -47 -50 176 -8 97 11 102 39 10z"/>
<path d="M7569 4097 c-5 -12 -8 -139 -14 -741 -4 -388 -6 -706 -4 -706 2 0
101 -13 219 -30 118 -16 341 -45 495 -64 328 -41 484 -63 520 -72 l25 -6 -2
78 -2 79 -3 -67 c-2 -38 -7 -68 -12 -68 -8 0 -30 318 -37 535 -2 72 -8 189
-14 260 -19 262 -23 437 -9 446 8 4 10 11 6 16 -5 4 -11 2 -15 -4 -6 -9 -35
-4 -112 18 -58 17 -195 57 -305 89 -110 32 -229 65 -265 75 -36 9 -114 33
-175 52 -60 19 -146 43 -190 55 -94 24 -105 29 -80 38 18 6 17 7 -3 12 -12 4
-22 5 -23 5z"/>
<path d="M6928 4007 c-24 -22 -25 -29 -32 -192 -4 -103 -3 -172 3 -178 6 -6
20 1 39 19 l30 29 4 169 c2 115 0 170 -8 173 -6 2 -22 -7 -36 -20z"/>
<path d="M7531 1663 l-3 -286 652 6 c359 4 655 9 658 12 6 6 -16 476 -22 483
-7 6 -1145 72 -1250 72 l-31 0 -4 -287z"/>
<path d="M9121 1029 c-1 -21 -66 -79 -89 -79 -9 0 -109 -7 -222 -15 -113 -9
-270 -20 -350 -25 -80 -5 -172 -12 -205 -15 -33 -3 -202 -14 -375 -25 -173
-12 -405 -27 -516 -35 -265 -20 -275 -20 -268 3 4 9 -5 4 -18 -12 -19 -22 -38
-32 -74 -37 -38 -6 -28 -7 41 -5 71 2 92 0 101 -12 10 -14 38 -14 255 2 400
28 387 26 392 47 3 12 14 19 30 19 38 0 326 19 379 25 40 5 47 3 53 -15 5 -16
15 -20 46 -20 21 0 39 5 39 10 0 6 -19 10 -42 10 -25 0 -38 4 -33 9 9 8 358
35 382 30 4 -1 15 0 23 4 8 3 87 10 175 16 131 9 168 15 204 34 49 24 87 67
78 88 -4 10 -6 9 -6 -2z"/>
<path d="M2753 3376 c-27 -23 -28 -28 -28 -114 0 -105 15 -132 71 -132 52 0
64 27 64 142 l0 97 -30 16 c-38 20 -44 19 -77 -9z"/>
<path d="M4892 3038 c-19 -19 -14 -36 14 -54 31 -21 157 -24 192 -6 30 17 28
50 -4 62 -37 14 -187 13 -202 -2z"/>
<path d="M2245 3376 c-64 -64 -31 -246 44 -246 80 0 99 218 23 259 -30 16 -40
14 -67 -13z"/>
</g>
</svg>
